<?xml version="1.0" standalone="no"?>
<!DOCTYPE svg PUBLIC "-//W3C//DTD SVG 20010904//EN"
 "http://www.w3.org/TR/2001/REC-SVG-20010904/DTD/svg10.dtd">
<svg version="1.0" xmlns="http://www.w3.org/2000/svg"
 width="1224.000000pt" height="1600.000000pt" viewBox="0 0 1224.000000 1600.000000"
 preserveAspectRatio="xMidYMid meet">

<g transform="translate(0.000000,1600.000000) scale(0.100000,-0.100000)"
fill="#000000" stroke="none">
<path d="M5805 15619 c-861 -30 -1760 -262 -2465 -636 -1266 -671 -2046 -1751
-2239 -3098 -48 -331 -46 -192 -46 -3935 0 -3353 1 -3544 18 -3705 94 -869
403 -1583 958 -2210 612 -692 1507 -1206 2556 -1469 1163 -292 2436 -252 3518
109 235 79 414 150 613 245 l152 73 -2 4193 -3 4192 -24 26 c-14 15 -42 31
-62 38 -54 16 -79 -1 -281 -182 -168 -151 -322 -289 -1288 -1155 -250 -224
-513 -460 -585 -525 -71 -64 -140 -122 -152 -128 -31 -17 -301 -15 -331 2 -33
18 -62 66 -62 101 0 44 23 73 135 172 55 49 699 619 1430 1268 732 649 1346
1193 1365 1209 46 38 107 33 154 -13 l31 -31 5 -4490 5 -4489 122 87 c353 253
699 600 957 962 354 495 599 1125 696 1785 46 317 45 219 45 3935 0 3760 2
3602 -50 3960 -31 215 -110 580 -125 580 -3 0 -185 -156 -405 -347 -220 -190
-611 -529 -870 -752 -573 -496 -712 -616 -1364 -1181 -283 -245 -600 -519
-706 -610 -505 -437 -1015 -879 -1065 -923 -30 -27 -84 -63 -120 -81 -56 -26
-76 -31 -145 -31 -121 1 -168 26 -324 178 -126 122 -1135 1114 -1756 1727
-181 179 -423 417 -537 530 l-208 204 -2 -3366 -3 -3367 -178 106 -177 106 0
3434 c0 3079 2 3437 16 3471 51 124 204 182 318 121 28 -15 170 -147 368 -343
656 -648 1951 -1928 2201 -2176 142 -140 261 -256 265 -258 6 -2 1424 1253
2342 2072 63 57 241 215 395 352 285 252 669 594 1393 1238 221 196 402 362
402 368 0 5 -33 78 -74 162 -480 977 -1337 1716 -2481 2139 -557 206 -1208
334 -1790 353 -275 9 -350 9 -540 3z"/>
</g>
</svg>
